<?xml version="1.0" encoding="UTF-8" standalone="no"?>
<svg
   xmlns:dc="http://purl.org/dc/elements/1.1/"
   xmlns:cc="http://creativecommons.org/ns#"
   xmlns:rdf="http://www.w3.org/1999/02/22-rdf-syntax-ns#"
   xmlns:svg="http://www.w3.org/2000/svg"
   xmlns="http://www.w3.org/2000/svg"
   xmlns:sodipodi="http://sodipodi.sourceforge.net/DTD/sodipodi-0.dtd"
   xmlns:inkscape="http://www.inkscape.org/namespaces/inkscape"
   version="1.1"
   id="svg2"
   xml:space="preserve"
   width="1122.52"
   height="793.70667"
   viewBox="0 0 1122.52 793.70667"
   sodipodi:docname="MEMO_Logo_arany.ai"><metadata
     id="metadata8"><rdf:RDF><cc:Work
         rdf:about=""><dc:format>image/svg+xml</dc:format><dc:type
           rdf:resource="http://purl.org/dc/dcmitype/StillImage" /></cc:Work></rdf:RDF></metadata><defs
     id="defs6"><linearGradient
       x1="0"
       y1="0"
       x2="1"
       y2="0"
       gradientUnits="userSpaceOnUse"
       gradientTransform="matrix(683.383,0,0,-683.383,79.007515,294.69724)"
       spreadMethod="pad"
       id="linearGradient38"><stop
         style="stop-opacity:1;stop-color:#af7b2b"
         offset="0"
         id="stop24" /><stop
         style="stop-opacity:1;stop-color:#f4db78"
         offset="0.29900027"
         id="stop26" /><stop
         style="stop-opacity:1;stop-color:#f4db78"
         offset="0.408246"
         id="stop28" /><stop
         style="stop-opacity:1;stop-color:#f4db78"
         offset="0.49370255"
         id="stop30" /><stop
         style="stop-opacity:1;stop-color:#af7b2b"
         offset="0.973176"
         id="stop32" /><stop
         style="stop-opacity:1;stop-color:#af7b2b"
         offset="0.9756347"
         id="stop34" /><stop
         style="stop-opacity:1;stop-color:#af7b2b"
         offset="1"
         id="stop36" /></linearGradient><linearGradient
       x1="0"
       y1="0"
       x2="1"
       y2="0"
       gradientUnits="userSpaceOnUse"
       gradientTransform="matrix(683.383,0,0,-683.383,79.007515,294.69724)"
       spreadMethod="pad"
       id="linearGradient68"><stop
         style="stop-opacity:1;stop-color:#af7b2b"
         offset="0"
         id="stop54" /><stop
         style="stop-opacity:1;stop-color:#f4db78"
         offset="0.29900027"
         id="stop56" /><stop
         style="stop-opacity:1;stop-color:#f4db78"
         offset="0.408246"
         id="stop58" /><stop
         style="stop-opacity:1;stop-color:#f4db78"
         offset="0.49370255"
         id="stop60" /><stop
         style="stop-opacity:1;stop-color:#af7b2b"
         offset="0.973176"
         id="stop62" /><stop
         style="stop-opacity:1;stop-color:#af7b2b"
         offset="0.9756347"
         id="stop64" /><stop
         style="stop-opacity:1;stop-color:#af7b2b"
         offset="1"
         id="stop66" /></linearGradient><linearGradient
       x1="0"
       y1="0"
       x2="1"
       y2="0"
       gradientUnits="userSpaceOnUse"
       gradientTransform="matrix(683.383,0,0,-683.383,79.007515,294.69724)"
       spreadMethod="pad"
       id="linearGradient98"><stop
         style="stop-opacity:1;stop-color:#af7b2b"
         offset="0"
         id="stop84" /><stop
         style="stop-opacity:1;stop-color:#f4db78"
         offset="0.29900027"
         id="stop86" /><stop
         style="stop-opacity:1;stop-color:#f4db78"
         offset="0.408246"
         id="stop88" /><stop
         style="stop-opacity:1;stop-color:#f4db78"
         offset="0.49370255"
         id="stop90" /><stop
         style="stop-opacity:1;stop-color:#af7b2b"
         offset="0.973176"
         id="stop92" /><stop
         style="stop-opacity:1;stop-color:#af7b2b"
         offset="0.9756347"
         id="stop94" /><stop
         style="stop-opacity:1;stop-color:#af7b2b"
         offset="1"
         id="stop96" /></linearGradient><linearGradient
       x1="0"
       y1="0"
       x2="1"
       y2="0"
       gradientUnits="userSpaceOnUse"
       gradientTransform="matrix(683.383,0,0,-683.383,79.007515,294.69724)"
       spreadMethod="pad"
       id="linearGradient128"><stop
         style="stop-opacity:1;stop-color:#af7b2b"
         offset="0"
         id="stop114" /><stop
         style="stop-opacity:1;stop-color:#f4db78"
         offset="0.29900027"
         id="stop116" /><stop
         style="stop-opacity:1;stop-color:#f4db78"
         offset="0.408246"
         id="stop118" /><stop
         style="stop-opacity:1;stop-color:#f4db78"
         offset="0.49370255"
         id="stop120" /><stop
         style="stop-opacity:1;stop-color:#af7b2b"
         offset="0.973176"
         id="stop122" /><stop
         style="stop-opacity:1;stop-color:#af7b2b"
         offset="0.9756347"
         id="stop124" /><stop
         style="stop-opacity:1;stop-color:#af7b2b"
         offset="1"
         id="stop126" /></linearGradient><linearGradient
       x1="0"
       y1="0"
       x2="1"
       y2="0"
       gradientUnits="userSpaceOnUse"
       gradientTransform="matrix(683.383,0,0,-683.383,79.007515,294.69724)"
       spreadMethod="pad"
       id="linearGradient158"><stop
         style="stop-opacity:1;stop-color:#af7b2b"
         offset="0"
         id="stop144" /><stop
         style="stop-opacity:1;stop-color:#f4db78"
         offset="0.29900027"
         id="stop146" /><stop
         style="stop-opacity:1;stop-color:#f4db78"
         offset="0.408246"
         id="stop148" /><stop
         style="stop-opacity:1;stop-color:#f4db78"
         offset="0.49370255"
         id="stop150" /><stop
         style="stop-opacity:1;stop-color:#af7b2b"
         offset="0.973176"
         id="stop152" /><stop
         style="stop-opacity:1;stop-color:#af7b2b"
         offset="0.9756347"
         id="stop154" /><stop
         style="stop-opacity:1;stop-color:#af7b2b"
         offset="1"
         id="stop156" /></linearGradient><linearGradient
       x1="0"
       y1="0"
       x2="1"
       y2="0"
       gradientUnits="userSpaceOnUse"
       gradientTransform="matrix(683.383,0,0,-683.383,79.007515,294.69724)"
       spreadMethod="pad"
       id="linearGradient188"><stop
         style="stop-opacity:1;stop-color:#af7b2b"
         offset="0"
         id="stop174" /><stop
         style="stop-opacity:1;stop-color:#f4db78"
         offset="0.29900027"
         id="stop176" /><stop
         style="stop-opacity:1;stop-color:#f4db78"
         offset="0.408246"
         id="stop178" /><stop
         style="stop-opacity:1;stop-color:#f4db78"
         offset="0.49370255"
         id="stop180" /><stop
         style="stop-opacity:1;stop-color:#af7b2b"
         offset="0.973176"
         id="stop182" /><stop
         style="stop-opacity:1;stop-color:#af7b2b"
         offset="0.9756347"
         id="stop184" /><stop
         style="stop-opacity:1;stop-color:#af7b2b"
         offset="1"
         id="stop186" /></linearGradient><linearGradient
       x1="0"
       y1="0"
       x2="1"
       y2="0"
       gradientUnits="userSpaceOnUse"
       gradientTransform="matrix(683.383,0,0,-683.383,79.007515,294.69724)"
       spreadMethod="pad"
       id="linearGradient218"><stop
         style="stop-opacity:1;stop-color:#af7b2b"
         offset="0"
         id="stop204" /><stop
         style="stop-opacity:1;stop-color:#f4db78"
         offset="0.29900027"
         id="stop206" /><stop
         style="stop-opacity:1;stop-color:#f4db78"
         offset="0.408246"
         id="stop208" /><stop
         style="stop-opacity:1;stop-color:#f4db78"
         offset="0.49370255"
         id="stop210" /><stop
         style="stop-opacity:1;stop-color:#af7b2b"
         offset="0.973176"
         id="stop212" /><stop
         style="stop-opacity:1;stop-color:#af7b2b"
         offset="0.9756347"
         id="stop214" /><stop
         style="stop-opacity:1;stop-color:#af7b2b"
         offset="1"
         id="stop216" /></linearGradient><linearGradient
       x1="0"
       y1="0"
       x2="1"
       y2="0"
       gradientUnits="userSpaceOnUse"
       gradientTransform="matrix(683.383,0,0,-683.383,79.007515,294.69724)"
       spreadMethod="pad"
       id="linearGradient248"><stop
         style="stop-opacity:1;stop-color:#af7b2b"
         offset="0"
         id="stop234" /><stop
         style="stop-opacity:1;stop-color:#f4db78"
         offset="0.29900027"
         id="stop236" /><stop
         style="stop-opacity:1;stop-color:#f4db78"
         offset="0.408246"
         id="stop238" /><stop
         style="stop-opacity:1;stop-color:#f4db78"
         offset="0.49370255"
         id="stop240" /><stop
         style="stop-opacity:1;stop-color:#af7b2b"
         offset="0.973176"
         id="stop242" /><stop
         style="stop-opacity:1;stop-color:#af7b2b"
         offset="0.9756347"
         id="stop244" /><stop
         style="stop-opacity:1;stop-color:#af7b2b"
         offset="1"
         id="stop246" /></linearGradient><linearGradient
       x1="0"
       y1="0"
       x2="1"
       y2="0"
       gradientUnits="userSpaceOnUse"
       gradientTransform="matrix(683.383,0,0,-683.383,79.007515,294.69724)"
       spreadMethod="pad"
       id="linearGradient278"><stop
         style="stop-opacity:1;stop-color:#af7b2b"
         offset="0"
         id="stop264" /><stop
         style="stop-opacity:1;stop-color:#f4db78"
         offset="0.29900027"
         id="stop266" /><stop
         style="stop-opacity:1;stop-color:#f4db78"
         offset="0.408246"
         id="stop268" /><stop
         style="stop-opacity:1;stop-color:#f4db78"
         offset="0.49370255"
         id="stop270" /><stop
         style="stop-opacity:1;stop-color:#af7b2b"
         offset="0.973176"
         id="stop272" /><stop
         style="stop-opacity:1;stop-color:#af7b2b"
         offset="0.9756347"
         id="stop274" /><stop
         style="stop-opacity:1;stop-color:#af7b2b"
         offset="1"
         id="stop276" /></linearGradient></defs><sodipodi:namedview
     pagecolor="#ffffff"
     bordercolor="#666666"
     borderopacity="1"
     objecttolerance="10"
     gridtolerance="10"
     guidetolerance="10"
     inkscape:pageopacity="0"
     inkscape:pageshadow="2"
     inkscape:window-width="640"
     inkscape:window-height="480"
     id="namedview4" /><g
     id="g10"
     inkscape:groupmode="layer"
     inkscape:label="MEMO_Logo_arany"
     transform="matrix(1.3333333,0,0,-1.3333333,0,793.70667)"><g
       id="g12"><g
         id="g14"><g
           id="g20"><g
             id="g22"><path
               d="m 567.188,230.294 v -47.265 h 6.524 v 22.207 h 6.844 l 16.431,-22.207 h 8.092 l -17.217,22.92 c 1.734,0.403 3.303,0.974 4.705,1.711 v 0 c 1.402,0.735 2.602,1.621 3.6,2.655 v 0 c 0.998,1.034 1.764,2.197 2.3,3.494 v 0 c 0.534,1.295 0.802,2.69 0.802,4.187 v 0 c 0,1.783 -0.345,3.427 -1.034,4.938 v 0 c -0.69,1.508 -1.718,2.808 -3.084,3.902 v 0 c -1.366,1.093 -3.077,1.943 -5.133,2.549 v 0 c -2.055,0.605 -4.437,0.909 -7.146,0.909 v 0 z m 6.524,-2.959 h 7.699 c 1.568,0 3.005,-0.238 4.313,-0.712 v 0 c 1.306,-0.476 2.435,-1.136 3.386,-1.978 v 0 c 0.95,-0.845 1.687,-1.861 2.209,-3.049 v 0 c 0.523,-1.188 0.786,-2.495 0.786,-3.92 v 0 c 0,-1.546 -0.328,-2.936 -0.981,-4.171 v 0 c -0.655,-1.235 -1.564,-2.288 -2.727,-3.154 v 0 c -1.165,-0.868 -2.548,-1.54 -4.153,-2.014 v 0 c -1.604,-0.476 -3.344,-0.713 -5.222,-0.713 v 0 h -5.31 z"
               style="fill:url(#linearGradient38);stroke:none"
               id="path40" /></g></g></g></g><g
       id="g42"><g
         id="g44"><g
           id="g50"><g
             id="g52"><path
               d="m 604.794,230.294 v -3.066 h 17.11 v -44.199 h 6.522 v 44.199 h 17.109 v 3.066 z"
               style="fill:url(#linearGradient68);stroke:none"
               id="path70" /></g></g></g></g><g
       id="g72"><g
         id="g74"><g
           id="g80"><g
             id="g82"><path
               d="m 167.203,420.079 c -18.794,-32.53 -9.747,-74.311 4.156,-106.818 v 0 C 187.976,274.412 272.985,199.937 287.626,160.122 v 0 c 1.71,-4.651 16.765,22.364 14.041,29.77 v 0 C 279.835,249.261 171.165,291.303 185.808,396.213 v 0 c 1.892,13.562 3.535,29.753 12.654,40.54 v 0 c 0.001,0.001 0.002,0.001 0.002,0.001 v 0 c 1.478,-0.077 2.958,-0.154 4.436,-0.232 v 0 c 3.651,-0.607 7.366,-2.107 10.596,-3.877 v 0 c 6.464,-3.542 11.943,-9.096 16.51,-14.805 v 0 c 20.257,-25.322 28.555,-58.759 25.106,-90.684 v 0 c -0.672,-6.221 26.424,8.107 28.915,13.943 v 0 c 7.631,17.871 16.55,35.078 27.071,51.426 v 0 c 6.973,10.835 16.642,29.026 29.554,33.127 v 0 c 16.152,5.132 33.678,-5.749 39.402,-20.628 v 0 c 5.936,-15.431 0.995,-32.075 -5.658,-46.386 v 0 c -2.014,-4.331 -2.349,-6.005 -13.105,-25.32 v 0 c 23.5,5.239 38.343,31.899 38.343,31.899 v 0 c 8.19,15.736 14.919,33.084 10.74,51.046 v 0 c -9.879,42.457 -60.623,28.216 -85.917,10.765 v 0 c -16.88,-11.646 -30.505,-27.898 -41.861,-45.803 v 0 c -4.385,25.01 -15.51,49.239 -34.998,64.451 v 0 c -7.849,6.127 -16.645,8.758 -25.552,8.758 v 0 c -21.683,-0.001 -44.011,-15.605 -54.843,-34.355"
               style="fill:url(#linearGradient98);stroke:none"
               id="path100" /></g></g></g></g><g
       id="g102"><g
         id="g104"><g
           id="g110"><g
             id="g112"><path
               d="m 494.193,296.118 c -0.701,-1.152 -1.807,-2.858 -2.87,-4.461 v 0 c -7.861,-7.738 -12.825,-11.456 -12.825,-11.456 v 0 c -4.166,-3.533 -4.396,-4.157 -7.335,-6.305 v 0 c -3.127,-2.286 -6.268,-4.118 -9.423,-5.501 v 0 c -3.158,-1.384 -6.21,-2.073 -9.153,-2.073 v 0 c -2.827,0 -5.111,0.991 -6.854,2.975 v 0 c -1.744,1.984 -2.614,4.748 -2.614,8.296 v 0 2.255 c 8.476,3.426 15.614,6.988 21.415,10.685 v 0 c 5.802,3.698 10.113,7.425 12.94,11.181 v 0 c 2.825,3.757 4.238,7.531 4.238,11.318 v 0 c 0,2.584 -0.826,4.522 -2.478,5.816 v 0 c -1.655,1.292 -3.894,1.939 -6.719,1.939 v 0 c -3.548,0 -7.574,-0.992 -12.083,-2.976 v 0 c -4.509,-1.984 -9.05,-4.931 -13.616,-8.837 v 0 c -6.674,-5.713 -11.484,-11.136 -14.428,-16.277 v 0 c -2.273,-3.964 -3.66,-8.284 -4.179,-12.947 v 0 c -3.423,-2.966 -6.072,-5.147 -7.907,-6.506 v 0 c -2.434,-1.803 -4.524,-2.705 -6.267,-2.705 v 0 c -1.503,0 -2.795,0.496 -3.877,1.489 v 0 c -1.082,0.991 -1.623,2.299 -1.623,3.922 v 0 c 0,2.764 0.946,5.411 2.841,7.935 v 0 c 1.892,2.526 4.748,5.906 8.566,10.146 v 0 c 3.817,4.236 5.726,6.926 5.726,8.069 v 0 c 0,1.744 -0.631,4.073 -1.894,6.989 v 0 c -1.262,2.916 -2.586,4.342 -3.967,4.283 v 0 c -0.722,0 -2.376,-1.082 -4.96,-3.246 v 0 c -2.586,-2.164 -5.576,-4.811 -8.973,-7.936 v 0 c -3.396,-3.126 -8.069,-7.409 -14.021,-12.849 v 0 c -5.952,-5.441 -13.075,-11.829 -21.372,-19.162 v 0 c 5.47,7.214 9.934,13.36 13.391,18.441 v 0 c 3.456,5.079 6.087,9.347 7.891,12.804 v 0 c 1.802,3.456 2.704,5.846 2.704,7.169 v 0 c 0,1.984 -0.585,3.653 -1.758,5.004 v 0 c -1.171,1.354 -2.66,2.029 -4.463,2.029 v 0 c -2.947,0 -6.539,-1.638 -10.776,-4.915 v 0 c -4.239,-3.276 -8.836,-7.394 -13.797,-12.352 v 0 c -4.959,-4.961 -9.513,-9.545 -13.661,-13.752 v 0 c 0,0 -1.036,-1.04 -3.312,-3.604 v 0 c 1.622,2.555 11.757,17.518 13.561,19.263 v 0 c 13.437,18.157 8.116,19.106 5.344,19.959 v 0 c -1.998,0 -3.888,-0.272 -18.751,-24.669 v 0 c -1.204,-1.977 -3.602,-5.599 -4.923,-7.499 v 0 c -3.994,-5.748 -22.672,-30.929 -8.577,-35.098 v 0 c 1.082,0 2.164,0.6 3.246,1.804 v 0 c 1.083,1.201 2.871,3.591 5.365,7.169 v 0 c 2.495,3.575 8.047,10.08 10.03,12.304 v 0 c 7.154,7.936 11.978,13.151 14.474,15.647 v 0 c 2.493,2.493 4.402,3.741 5.726,3.741 v 0 c 1.201,0 1.803,-0.602 1.803,-1.804 v 0 c 0,-1.023 -0.18,-1.773 -0.541,-2.254 v 0 c -4.328,-7.214 -7.665,-13.151 -10.009,-17.81 v 0 c -2.345,-4.658 -3.517,-7.89 -3.517,-9.693 v 0 c 0,-4.45 1.562,-6.673 4.689,-6.673 v 0 c 2.885,0 6.01,1.862 9.378,5.591 v 0 c 1.743,1.984 4.116,4.703 7.124,8.161 v 0 c 3.005,3.456 6.882,7.498 11.633,12.129 v 0 c 4.747,4.627 10.189,9.436 16.321,14.427 v 0 c -2.045,-3.368 -4.299,-7.078 -6.763,-11.137 v 0 c -2.466,-4.056 -4.45,-7.529 -5.952,-10.415 v 0 c -1.503,-2.885 -2.615,-5.381 -3.336,-7.484 v 0 c -0.721,-2.105 -1.082,-4.18 -1.082,-6.222 v 0 c 0,-2.106 0.631,-3.864 1.893,-5.276 v 0 c 1.263,-1.411 2.825,-2.118 4.689,-2.118 v 0 c 2.104,0 4.735,0.887 7.89,2.659 v 0 c 3.157,1.773 6.868,4.449 11.137,8.027 v 0 c 3.216,2.694 6.724,5.799 10.487,9.264 v 0 c 0.329,-6.026 1.867,-10.868 4.619,-14.52 v 0 c 3.125,-4.148 7.363,-6.222 12.714,-6.222 v 0 c 6.133,0 12.175,2.18 18.125,6.537 v 0 c 5.531,4.05 8.255,6.38 14.512,13.725 v 0 c 0.99,1.084 2.066,2.361 3.178,3.746 v 0 c -5.257,-9.183 -9.36,-20.119 -0.493,-22.742 v 0 c 1.081,0 2.163,0.6 3.245,1.804 v 0 c 1.083,1.201 2.871,3.592 5.365,7.169 v 0 c 2.495,3.576 8.047,10.08 10.03,12.305 v 0 c 7.154,7.935 11.978,13.15 14.474,15.645 v 0 c 2.494,2.494 4.403,3.743 5.726,3.743 v 0 c 1.201,0 1.804,-0.602 1.804,-1.804 v 0 c 0,-1.023 -0.181,-1.775 -0.541,-2.254 v 0 c -4.329,-7.215 -7.666,-13.152 -10.01,-17.81 v 0 c -2.345,-4.659 -3.517,-7.89 -3.517,-9.694 v 0 c 0,-4.45 1.562,-6.673 4.69,-6.673 v 0 c 2.885,0 6.009,1.863 9.378,5.591 v 0 c 1.742,1.984 4.116,4.703 7.123,8.162 v 0 c 3.005,3.456 6.882,7.497 11.633,12.127 v 0 c 4.747,4.629 10.189,9.437 16.321,14.428 v 0 c -2.045,-3.368 -4.299,-7.078 -6.763,-11.136 v 0 c -2.466,-4.058 -4.45,-7.53 -5.951,-10.415 v 0 c -1.504,-2.886 -2.616,-5.381 -3.336,-7.485 v 0 c -0.722,-2.106 -1.083,-4.179 -1.083,-6.222 v 0 c 0,-2.105 0.632,-3.863 1.893,-5.276 v 0 c 1.263,-1.411 2.825,-2.119 4.689,-2.119 v 0 c 2.104,0 4.735,0.889 7.891,2.66 v 0 c 3.157,1.774 6.867,4.45 11.136,8.027 v 0 c 3.912,3.277 8.233,7.13 12.952,11.544 v 0 c 0.349,-3.119 1.09,-6.024 2.242,-8.704 v 0 c 1.654,-3.848 3.863,-6.884 6.629,-9.108 v 0 c 2.763,-2.224 5.83,-3.336 9.198,-3.336 v 0 c 5.951,0 12.834,4.628 20.649,13.887 v 0 c 4.509,-0.241 7.965,0.239 10.37,1.443 v 0 c 2.404,1.201 5.592,3.606 9.559,7.213 v 0 c 2.486,2.19 0,6.042 0,6.042 v 0 c -2.647,-1.984 -4.36,-3.262 -5.14,-3.832 v 0 c -0.782,-0.573 -1.669,-1.113 -2.66,-1.623 v 0 c -0.058,-0.03 -0.117,-0.059 -0.175,-0.087 v 0 c -1.328,-0.644 -2.87,-0.671 -4.252,-0.154 v 0 c -0.305,0.114 -0.588,0.279 -0.838,0.487 v 0 l -0.732,0.61 c 2.344,3.847 4.194,7.965 5.546,12.354 v 0 c 1.353,4.387 2.029,8.026 2.029,10.911 v 0 c 0,2.945 -0.422,4.974 -1.263,6.087 v 0 c -0.843,1.112 -2.405,1.907 -4.689,2.389 v 0 c 1.382,1.563 2.074,2.945 2.074,4.148 v 0 c 0,1.563 -0.811,2.78 -2.434,3.653 v 0 c -1.623,0.871 -3.849,1.307 -6.673,1.307 v 0 c -3.968,0 -8.267,-1.248 -12.895,-3.743 v 0 c -4.631,-2.494 -8.973,-5.771 -13.03,-9.828 v 0 c -4.059,-4.058 -7.365,-8.431 -9.919,-13.12 v 0 c -2.078,-3.812 -3.296,-7.342 -3.684,-10.597 v 0 c -4.521,-3.974 -7.9,-6.791 -10.113,-8.43 v 0 c -2.434,-1.803 -4.525,-2.705 -6.267,-2.705 v 0 c -1.504,0 -2.795,0.495 -3.878,1.488 v 0 c -1.082,0.991 -1.623,2.299 -1.623,3.923 v 0 c 0,2.763 0.946,5.409 2.841,7.935 v 0 c 1.892,2.524 4.748,5.906 8.566,10.145 v 0 c 3.818,4.237 5.727,6.927 5.727,8.07 v 0 c 0,1.742 -0.632,4.071 -1.894,6.988 v 0 c -1.263,2.915 -2.586,4.342 -3.968,4.284 v 0 c -0.721,0 -2.376,-1.082 -4.96,-3.247 v 0 c -2.586,-2.164 -5.577,-4.81 -8.972,-7.935 v 0 c -3.397,-3.127 -8.071,-7.41 -14.022,-12.849 v 0 C 533.24,284.46 526.117,278.073 517.82,270.74 v 0 c 5.47,7.214 9.934,13.36 13.391,18.441 v 0 c 3.456,5.079 6.087,9.347 7.891,12.805 v 0 c 1.803,3.456 2.705,5.845 2.705,7.168 v 0 c 0,1.984 -0.586,3.653 -1.759,5.004 v 0 c -1.171,1.354 -2.66,2.03 -4.463,2.03 v 0 c -2.946,0 -6.538,-1.639 -10.775,-4.915 v 0 c -4.24,-3.277 -8.837,-7.394 -13.798,-12.353 v 0 c -4.959,-4.961 -9.513,-9.546 -13.661,-13.752 v 0 c -2.571,-2.573 -2.251,-2.315 -1.925,-2.058 v 0 c 0.302,0.24 0.609,0.479 -1.387,-1.546 v 0 c 1.623,2.554 11.757,17.518 13.561,19.263 v 0 c 13.437,18.157 8.116,19.106 5.344,19.96 v 0 c -1.997,0 -3.888,-0.274 -18.751,-24.669 m -46.295,-0.58 c 1.983,3.005 4.222,5.62 6.717,7.845 v 0 c 2.494,2.223 4.961,4.026 7.395,5.411 v 0 c 2.435,1.381 4.193,2.073 5.275,2.073 v 0 c 1.262,0 1.894,-0.692 1.894,-2.073 v 0 c 0,-1.323 -0.917,-3.413 -2.75,-6.267 v 0 c -1.835,-2.857 -4.676,-5.848 -8.523,-8.973 v 0 c -3.847,-3.127 -8.476,-5.742 -13.886,-7.845 v 0 c 0.6,3.546 1.894,6.822 3.878,9.829 m 140.98,-22.544 c 0,0.365 -0.11,1.24 0.278,3.832 v 0 c 0.693,4.632 2.476,9.068 5.345,12.771 v 0 c 0.526,0.677 1.062,1.303 1.591,1.837 v 0 c 2.464,2.495 5.469,4.961 9.018,7.395 v 0 c 3.546,2.435 7.813,5.154 12.804,8.161 v 0 c -3.065,-5.11 -5.381,-9.635 -6.944,-13.572 v 0 c -1.564,-3.937 -2.344,-7.799 -2.344,-11.587 v 0 c 0,-2.585 0.509,-5.291 1.533,-8.115 v 0 c -6.073,-4.45 -10.402,-6.673 -12.985,-6.673 v 0 c -5.532,0 -8.296,1.984 -8.296,5.951 m 34.193,27.044 c 4.107,-5.63 -3.272,-18.259 -3.272,-18.259 v 0 c -4.184,6.923 3.272,18.259 3.272,18.259"
               style="fill:url(#linearGradient128);stroke:none"
               id="path130" /></g></g></g></g><g
       id="g132"><g
         id="g134"><g
           id="g140"><g
             id="g142"><path
               d="m 535.714,231.363 -22.599,-48.334 h 3.849 l 7.379,15.755 h 20.924 l 7.2,-15.755 h 6.807 l -22.242,48.334 z m -0.963,-10.301 9.055,-19.213 h -18.002 z"
               style="fill:url(#linearGradient158);stroke:none"
               id="path160" /></g></g></g></g><g
       id="g162"><g
         id="g164"><g
           id="g170"><g
             id="g172"><path
               d="m 477.685,230.294 v -47.265 h 31.438 v 3.066 h -24.915 v 21.172 h 16.682 v 3.066 h -16.682 v 16.895 h 24.915 v 3.066 z"
               style="fill:url(#linearGradient188);stroke:none"
               id="path190" /></g></g></g></g><g
       id="g192"><g
         id="g194"><g
           id="g200"><g
             id="g202"><path
               d="m 456.868,230.294 v -21.53 h -25.164 v 21.53 h -6.523 v -47.265 h 6.523 v 22.67 h 25.164 v -22.67 h 6.524 v 47.265 z"
               style="fill:url(#linearGradient218);stroke:none"
               id="path220" /></g></g></g></g><g
       id="g222"><g
         id="g224"><g
           id="g230"><g
             id="g232"><path
               d="m 393.172,230.294 v -35.502 l -31.866,35.502 h -3.921 v -47.265 h 3.6 v 37.925 l 33.897,-38.888 h 1.783 v 48.228 z"
               style="fill:url(#linearGradient248);stroke:none"
               id="path250" /></g></g></g></g><g
       id="g252"><g
         id="g254"><g
           id="g260"><g
             id="g262"><path
               d="m 337.281,183.029 h 6.523 v 47.264 h -6.523 z"
               style="fill:url(#linearGradient278);stroke:none"
               id="path280" /></g></g></g></g></g></svg>
